<svg xmlns="http://www.w3.org/2000/svg" xmlns:xlink="http://www.w3.org/1999/xlink" width="500" zoomAndPan="magnify" viewBox="0 0 375 374.999991" height="500" preserveAspectRatio="xMidYMid meet" version="1.2"><defs><clipPath id="a342f306e5"><path d="M 4 0.160156 L 62 0.160156 L 62 70 L 4 70 Z M 4 0.160156 "/></clipPath><clipPath id="ca6c2ad249"><path d="M 297 0.160156 L 323 0.160156 L 323 68 L 297 68 Z M 297 0.160156 "/></clipPath><clipPath id="f609cc76ca"><rect x="0" width="325" y="0" height="94"/></clipPath></defs><g id="2e3fd045a0"><g transform="matrix(1,0,0,1,27,140)"><g clip-path="url(#f609cc76ca)"><g clip-rule="nonzero" clip-path="url(#a342f306e5)"><g style="fill:#dd6a99;fill-opacity:1;"><g transform="translate(0.806322, 67.781087)"><path style="stroke:none" d="M 3.28125 -32.78125 C 3.28125 -37.882812 4.128906 -42.523438 5.828125 -46.703125 C 7.535156 -50.878906 9.882812 -54.472656 12.875 -57.484375 C 15.875 -60.492188 19.347656 -62.804688 23.296875 -64.421875 C 27.253906 -66.046875 31.484375 -66.859375 35.984375 -66.859375 C 38.953125 -66.859375 41.898438 -66.582031 44.828125 -66.03125 C 47.753906 -65.488281 50.410156 -64.679688 52.796875 -63.609375 C 55.179688 -62.535156 57.09375 -61.203125 58.53125 -59.609375 C 59.976562 -58.015625 60.703125 -56.171875 60.703125 -54.078125 C 60.703125 -52.847656 60.445312 -51.984375 59.9375 -51.484375 C 59.4375 -50.984375 58.945312 -50.6875 58.46875 -50.59375 C 57.988281 -50.507812 57.75 -50.46875 57.75 -50.46875 C 57.488281 -52.300781 56.742188 -54.113281 55.515625 -55.90625 C 54.296875 -57.695312 52.691406 -59.3125 50.703125 -60.75 C 48.710938 -62.195312 46.460938 -63.359375 43.953125 -64.234375 C 41.441406 -65.109375 38.785156 -65.546875 35.984375 -65.546875 C 32.179688 -65.546875 28.628906 -64.769531 25.328125 -63.21875 C 22.035156 -61.664062 19.117188 -59.4375 16.578125 -56.53125 C 14.046875 -53.625 12.066406 -50.171875 10.640625 -46.171875 C 9.222656 -42.179688 8.515625 -37.71875 8.515625 -32.78125 C 8.515625 -27.882812 9.222656 -23.425781 10.640625 -19.40625 C 12.066406 -15.382812 14.046875 -11.921875 16.578125 -9.015625 C 19.117188 -6.109375 22.035156 -3.878906 25.328125 -2.328125 C 28.628906 -0.773438 32.179688 0 35.984375 0 C 39.429688 0 42.75 -0.695312 45.9375 -2.09375 C 49.132812 -3.488281 52.054688 -5.28125 54.703125 -7.46875 C 57.347656 -9.65625 59.5 -11.953125 61.15625 -14.359375 L 61.15625 -7.015625 C 60.101562 -5.398438 58.296875 -3.96875 55.734375 -2.71875 C 53.179688 -1.476562 50.191406 -0.5 46.765625 0.21875 C 43.335938 0.945312 39.742188 1.3125 35.984375 1.3125 C 31.484375 1.3125 27.253906 0.503906 23.296875 -1.109375 C 19.347656 -2.734375 15.875 -5.050781 12.875 -8.0625 C 9.882812 -11.070312 7.535156 -14.664062 5.828125 -18.84375 C 4.128906 -23.019531 3.28125 -27.664062 3.28125 -32.78125 Z M 3.28125 -32.78125 "/></g></g></g><g style="fill:#dd6a99;fill-opacity:1;"><g transform="translate(60.914127, 67.781087)"><path style="stroke:none" d="M 4.59375 0 L 4.59375 -65.546875 L 9.828125 -65.546875 L 9.828125 -40.515625 C 9.828125 -39.421875 10.023438 -38.875 10.421875 -38.875 C 10.679688 -38.875 11.160156 -39.175781 11.859375 -39.78125 C 14.222656 -42.0625 16.738281 -43.78125 19.40625 -44.9375 C 22.070312 -46.09375 25.109375 -46.671875 28.515625 -46.671875 C 31.835938 -46.671875 34.753906 -46.023438 37.265625 -44.734375 C 39.773438 -43.441406 41.738281 -41.660156 43.15625 -39.390625 C 44.582031 -37.117188 45.296875 -34.5 45.296875 -31.53125 L 45.296875 0 L 40.046875 0 L 40.046875 -31.390625 C 40.046875 -34.492188 39.457031 -37.070312 38.28125 -39.125 C 37.101562 -41.1875 35.550781 -42.738281 33.625 -43.78125 C 31.695312 -44.832031 29.644531 -45.359375 27.46875 -45.359375 C 25.28125 -45.359375 23.132812 -44.941406 21.03125 -44.109375 C 18.9375 -43.285156 17.046875 -42.160156 15.359375 -40.734375 C 13.679688 -39.316406 12.335938 -37.710938 11.328125 -35.921875 C 10.328125 -34.128906 9.828125 -32.269531 9.828125 -30.34375 L 9.828125 0 Z M 4.59375 0 "/></g></g><g style="fill:#dd6a99;fill-opacity:1;"><g transform="translate(106.53566, 67.781087)"><path style="stroke:none" d="M 9.5625 0 L 4.328125 0 L 4.328125 -45.359375 L 9.5625 -45.359375 Z M 0.859375 -55.78125 C 0.640625 -55.863281 0.53125 -55.957031 0.53125 -56.0625 C 0.53125 -56.175781 0.640625 -56.257812 0.859375 -56.3125 C 2.078125 -56.695312 3.035156 -57.097656 3.734375 -57.515625 C 4.429688 -57.929688 5 -58.53125 5.4375 -59.3125 C 5.875 -60.101562 6.289062 -61.195312 6.6875 -62.59375 C 6.769531 -62.8125 6.898438 -62.921875 7.078125 -62.921875 C 7.253906 -62.921875 7.363281 -62.8125 7.40625 -62.59375 C 7.800781 -61.195312 8.21875 -60.101562 8.65625 -59.3125 C 9.09375 -58.53125 9.660156 -57.921875 10.359375 -57.484375 C 11.054688 -57.046875 12.015625 -56.65625 13.234375 -56.3125 C 13.453125 -56.257812 13.5625 -56.175781 13.5625 -56.0625 C 13.5625 -55.957031 13.453125 -55.863281 13.234375 -55.78125 C 12.054688 -55.382812 11.082031 -54.976562 10.3125 -54.5625 C 9.550781 -54.144531 8.953125 -53.554688 8.515625 -52.796875 C 8.078125 -52.035156 7.707031 -50.910156 7.40625 -49.421875 C 7.363281 -49.242188 7.242188 -49.15625 7.046875 -49.15625 C 6.847656 -49.15625 6.726562 -49.242188 6.6875 -49.421875 C 6.289062 -50.910156 5.875 -52.035156 5.4375 -52.796875 C 5 -53.554688 4.429688 -54.144531 3.734375 -54.5625 C 3.035156 -54.976562 2.078125 -55.382812 0.859375 -55.78125 Z M 0.859375 -55.78125 "/></g></g><g style="fill:#dd6a99;fill-opacity:1;"><g transform="translate(116.367563, 67.781087)"><path style="stroke:none" d="M 4.59375 0 L 4.59375 -45.359375 L 9.828125 -45.359375 L 9.828125 -40.515625 C 9.828125 -39.421875 10.023438 -38.875 10.421875 -38.875 C 10.679688 -38.875 11.160156 -39.175781 11.859375 -39.78125 C 14.222656 -42.0625 16.738281 -43.78125 19.40625 -44.9375 C 22.070312 -46.09375 25.109375 -46.671875 28.515625 -46.671875 C 31.835938 -46.671875 34.753906 -46.023438 37.265625 -44.734375 C 39.773438 -43.441406 41.738281 -41.660156 43.15625 -39.390625 C 44.582031 -37.117188 45.296875 -34.5 45.296875 -31.53125 L 45.296875 0 L 40.046875 0 L 40.046875 -31.390625 C 40.046875 -34.492188 39.457031 -37.070312 38.28125 -39.125 C 37.101562 -41.1875 35.550781 -42.738281 33.625 -43.78125 C 31.695312 -44.832031 29.644531 -45.359375 27.46875 -45.359375 C 25.28125 -45.359375 23.132812 -44.941406 21.03125 -44.109375 C 18.9375 -43.285156 17.046875 -42.160156 15.359375 -40.734375 C 13.679688 -39.316406 12.335938 -37.710938 11.328125 -35.921875 C 10.328125 -34.128906 9.828125 -32.269531 9.828125 -30.34375 L 9.828125 0 Z M 4.59375 0 "/></g></g><g style="fill:#dd6a99;fill-opacity:1;"><g transform="translate(161.989095, 67.781087)"><path style="stroke:none" d=""/></g></g><g style="fill:#dd6a99;fill-opacity:1;"><g transform="translate(177.392643, 67.781087)"><path style="stroke:none" d="M 3.28125 -22.671875 C 3.28125 -27.484375 4.207031 -31.691406 6.0625 -35.296875 C 7.914062 -38.898438 10.515625 -41.695312 13.859375 -43.6875 C 17.203125 -45.675781 21.082031 -46.671875 25.5 -46.671875 C 27.414062 -46.671875 29.347656 -46.40625 31.296875 -45.875 C 33.242188 -45.351562 35.023438 -44.644531 36.640625 -43.75 C 38.253906 -42.851562 39.5625 -41.800781 40.5625 -40.59375 C 41.570312 -39.394531 42.078125 -38.117188 42.078125 -36.765625 C 42.078125 -36.023438 41.878906 -35.390625 41.484375 -34.859375 C 41.097656 -34.335938 40.578125 -34.078125 39.921875 -34.078125 C 38.867188 -34.078125 38.015625 -34.457031 37.359375 -35.21875 C 36.703125 -35.988281 36.085938 -36.929688 35.515625 -38.046875 C 34.953125 -39.160156 34.285156 -40.273438 33.515625 -41.390625 C 32.753906 -42.503906 31.75 -43.441406 30.5 -44.203125 C 29.257812 -44.972656 27.613281 -45.359375 25.5625 -45.359375 C 22.195312 -45.359375 19.242188 -44.425781 16.703125 -42.5625 C 14.171875 -40.707031 12.207031 -38.085938 10.8125 -34.703125 C 9.414062 -31.316406 8.71875 -27.351562 8.71875 -22.8125 C 8.71875 -18.269531 9.414062 -14.289062 10.8125 -10.875 C 12.207031 -7.46875 14.171875 -4.820312 16.703125 -2.9375 C 19.242188 -1.0625 22.195312 -0.125 25.5625 -0.125 C 27.789062 -0.125 29.929688 -0.539062 31.984375 -1.375 C 34.035156 -2.207031 35.890625 -3.320312 37.546875 -4.71875 C 39.210938 -6.113281 40.503906 -7.6875 41.421875 -9.4375 L 42.546875 -8.984375 C 40.753906 -5.660156 38.414062 -3.113281 35.53125 -1.34375 C 32.644531 0.425781 29.300781 1.3125 25.5 1.3125 C 21.082031 1.3125 17.203125 0.316406 13.859375 -1.671875 C 10.515625 -3.660156 7.914062 -6.457031 6.0625 -10.0625 C 4.207031 -13.664062 3.28125 -17.867188 3.28125 -22.671875 Z M 3.28125 -22.671875 "/></g></g><g style="fill:#dd6a99;fill-opacity:1;"><g transform="translate(218.753504, 67.781087)"><path style="stroke:none" d="M 4.59375 -45.359375 L 9.828125 -45.359375 L 9.828125 -37.171875 C 9.828125 -36.117188 9.984375 -35.59375 10.296875 -35.59375 C 10.554688 -35.59375 10.945312 -35.960938 11.46875 -36.703125 C 12.5625 -38.191406 13.9375 -39.695312 15.59375 -41.21875 C 17.257812 -42.75 19.21875 -44.039062 21.46875 -45.09375 C 23.71875 -46.144531 26.195312 -46.671875 28.90625 -46.671875 C 31.269531 -46.671875 33.28125 -46.285156 34.9375 -45.515625 C 36.59375 -44.753906 37.421875 -43.785156 37.421875 -42.609375 C 37.421875 -42.210938 37.269531 -41.707031 36.96875 -41.09375 C 36.664062 -40.488281 36.007812 -40.1875 35 -40.1875 C 34.125 -40.1875 33.367188 -40.335938 32.734375 -40.640625 C 32.109375 -40.941406 31.476562 -41.289062 30.84375 -41.6875 C 30.207031 -42.082031 29.484375 -42.429688 28.671875 -42.734375 C 27.867188 -43.046875 26.832031 -43.203125 25.5625 -43.203125 C 23.59375 -43.203125 21.671875 -42.785156 19.796875 -41.953125 C 17.921875 -41.117188 16.238281 -39.976562 14.75 -38.53125 C 13.257812 -37.09375 12.066406 -35.445312 11.171875 -33.59375 C 10.273438 -31.738281 9.828125 -29.78125 9.828125 -27.71875 L 9.828125 0 L 4.59375 0 Z M 4.59375 -45.359375 "/></g></g><g style="fill:#dd6a99;fill-opacity:1;"><g transform="translate(248.643193, 67.781087)"><path style="stroke:none" d="M 3.46875 -10.484375 C 3.46875 -13.546875 4.101562 -16.09375 5.375 -18.125 C 6.644531 -20.15625 8.316406 -21.8125 10.390625 -23.09375 C 12.460938 -24.382812 14.734375 -25.410156 17.203125 -26.171875 C 19.671875 -26.941406 22.140625 -27.566406 24.609375 -28.046875 C 27.078125 -28.535156 29.347656 -29.019531 31.421875 -29.5 C 33.503906 -29.976562 35.175781 -30.566406 36.4375 -31.265625 C 37.707031 -31.960938 38.34375 -32.898438 38.34375 -34.078125 C 38.34375 -36.660156 37.828125 -38.703125 36.796875 -40.203125 C 35.773438 -41.710938 34.519531 -42.828125 33.03125 -43.546875 C 31.550781 -44.273438 30.054688 -44.757812 28.546875 -45 C 27.035156 -45.238281 25.820312 -45.359375 24.90625 -45.359375 C 22.375 -45.359375 20.375 -44.972656 18.90625 -44.203125 C 17.445312 -43.441406 16.300781 -42.503906 15.46875 -41.390625 C 14.632812 -40.273438 13.957031 -39.160156 13.4375 -38.046875 C 12.914062 -36.929688 12.347656 -35.988281 11.734375 -35.21875 C 11.117188 -34.457031 10.285156 -34.078125 9.234375 -34.078125 C 8.585938 -34.078125 8.066406 -34.335938 7.671875 -34.859375 C 7.273438 -35.390625 7.078125 -36.023438 7.078125 -36.765625 C 7.078125 -38.117188 7.578125 -39.394531 8.578125 -40.59375 C 9.585938 -41.800781 10.898438 -42.851562 12.515625 -43.75 C 14.128906 -44.644531 15.921875 -45.351562 17.890625 -45.875 C 19.859375 -46.40625 21.78125 -46.671875 23.65625 -46.671875 C 27.945312 -46.671875 31.578125 -45.9375 34.546875 -44.46875 C 37.515625 -43.007812 39.765625 -41.066406 41.296875 -38.640625 C 42.828125 -36.210938 43.59375 -33.578125 43.59375 -30.734375 L 43.59375 0 L 38.34375 0 L 38.34375 -5.90625 C 38.34375 -7.082031 38.035156 -7.671875 37.421875 -7.671875 C 36.941406 -7.671875 36.441406 -7.429688 35.921875 -6.953125 C 34.304688 -5.597656 32.546875 -4.285156 30.640625 -3.015625 C 28.742188 -1.742188 26.734375 -0.707031 24.609375 0.09375 C 22.492188 0.90625 20.273438 1.3125 17.953125 1.3125 C 15.078125 1.3125 12.546875 0.8125 10.359375 -0.1875 C 8.171875 -1.195312 6.472656 -2.597656 5.265625 -4.390625 C 4.066406 -6.179688 3.46875 -8.210938 3.46875 -10.484375 Z M 23.921875 -26.8125 C 21.171875 -26.332031 18.691406 -25.378906 16.484375 -23.953125 C 14.273438 -22.535156 12.535156 -20.773438 11.265625 -18.671875 C 10.003906 -16.578125 9.375 -14.242188 9.375 -11.671875 C 9.375 -9.265625 9.894531 -7.296875 10.9375 -5.765625 C 11.988281 -4.234375 13.351562 -3.097656 15.03125 -2.359375 C 16.71875 -1.617188 18.476562 -1.25 20.3125 -1.25 C 22.5 -1.25 24.578125 -1.617188 26.546875 -2.359375 C 28.515625 -3.097656 30.335938 -4.078125 32.015625 -5.296875 C 33.703125 -6.523438 35.15625 -7.835938 36.375 -9.234375 C 36.988281 -9.890625 37.46875 -10.765625 37.8125 -11.859375 C 38.164062 -12.953125 38.34375 -14.046875 38.34375 -15.140625 L 38.34375 -26.875 C 38.34375 -27.832031 38.066406 -28.507812 37.515625 -28.90625 C 36.972656 -29.300781 36.222656 -29.367188 35.265625 -29.109375 C 33.554688 -28.617188 31.785156 -28.210938 29.953125 -27.890625 C 28.117188 -27.566406 26.109375 -27.207031 23.921875 -26.8125 Z M 23.921875 -26.8125 "/></g></g><g clip-rule="nonzero" clip-path="url(#ca6c2ad249)"><g style="fill:#dd6a99;fill-opacity:1;"><g transform="translate(292.560449, 67.781087)"><path style="stroke:none" d="M 4.59375 -48.3125 C 4.59375 -48.3125 4.625 -48.757812 4.6875 -49.65625 C 4.75 -50.550781 4.921875 -51.695312 5.203125 -53.09375 C 5.492188 -54.488281 5.976562 -55.984375 6.65625 -57.578125 C 7.332031 -59.171875 8.269531 -60.664062 9.46875 -62.0625 C 10.675781 -63.46875 12.226562 -64.617188 14.125 -65.515625 C 16.03125 -66.410156 18.335938 -66.859375 21.046875 -66.859375 C 23.796875 -66.859375 26 -66.53125 27.65625 -65.875 C 29.320312 -65.21875 30.15625 -64.144531 30.15625 -62.65625 C 30.15625 -62.007812 29.945312 -61.519531 29.53125 -61.1875 C 29.113281 -60.863281 28.617188 -60.703125 28.046875 -60.703125 C 27.128906 -60.703125 26.300781 -60.90625 25.5625 -61.3125 C 24.820312 -61.726562 24.078125 -62.207031 23.328125 -62.75 C 22.585938 -63.300781 21.78125 -63.785156 20.90625 -64.203125 C 20.03125 -64.617188 18.984375 -64.828125 17.765625 -64.828125 C 17.242188 -64.828125 16.546875 -64.738281 15.671875 -64.5625 C 14.796875 -64.382812 13.910156 -63.910156 13.015625 -63.140625 C 12.117188 -62.378906 11.375 -61.101562 10.78125 -59.3125 C 10.1875 -57.519531 9.890625 -55.007812 9.890625 -51.78125 L 9.890625 -48.640625 C 9.890625 -47.671875 10.195312 -46.878906 10.8125 -46.265625 C 11.425781 -45.660156 12.210938 -45.359375 13.171875 -45.359375 L 17.703125 -45.359375 L 17.703125 -44.046875 L 13.171875 -44.046875 C 12.210938 -44.046875 11.425781 -43.75 10.8125 -43.15625 C 10.195312 -42.570312 9.890625 -41.773438 9.890625 -40.765625 L 9.890625 0 L 4.59375 0 Z M 4.59375 -48.3125 "/></g></g></g><g style="fill:#dd6a99;fill-opacity:1;"><g transform="translate(303.375029, 67.781087)"><path style="stroke:none" d="M 1.3125 -44.046875 L 1.3125 -45.359375 C 3.445312 -45.359375 5.203125 -45.835938 6.578125 -46.796875 C 7.960938 -47.765625 9.003906 -48.9375 9.703125 -50.3125 C 10.398438 -51.6875 10.75 -52.960938 10.75 -54.140625 C 10.75 -55.453125 10.398438 -56.585938 9.703125 -57.546875 C 9.003906 -58.515625 8.148438 -59 7.140625 -59 C 6.359375 -59 5.847656 -58.820312 5.609375 -58.46875 C 5.367188 -58.113281 5.203125 -57.695312 5.109375 -57.21875 C 5.023438 -56.738281 4.882812 -56.320312 4.6875 -55.96875 C 4.488281 -55.625 4.0625 -55.453125 3.40625 -55.453125 C 2.664062 -55.453125 2.128906 -55.691406 1.796875 -56.171875 C 1.472656 -56.648438 1.3125 -57.109375 1.3125 -57.546875 C 1.3125 -58.722656 1.789062 -59.570312 2.75 -60.09375 C 3.707031 -60.625 4.625 -60.890625 5.5 -60.890625 C 6.90625 -60.890625 8.097656 -60.550781 9.078125 -59.875 C 10.054688 -59.195312 10.804688 -58.351562 11.328125 -57.34375 C 11.859375 -56.34375 12.125 -55.34375 12.125 -54.34375 C 12.125 -53.070312 11.875 -51.84375 11.375 -50.65625 C 10.875 -49.476562 10.054688 -48.390625 8.921875 -47.390625 C 8.347656 -46.910156 8.113281 -46.515625 8.21875 -46.203125 C 8.332031 -45.898438 8.609375 -45.679688 9.046875 -45.546875 C 9.484375 -45.421875 9.898438 -45.359375 10.296875 -45.359375 L 15.46875 -45.359375 L 15.46875 -44.046875 C 13.894531 -44.046875 12.789062 -43.847656 12.15625 -43.453125 C 11.519531 -43.066406 11.144531 -42.488281 11.03125 -41.71875 C 10.925781 -40.957031 10.875 -39.960938 10.875 -38.734375 L 10.875 0 L 5.640625 0 L 5.640625 -34.9375 C 5.640625 -36.863281 5.75 -38.367188 5.96875 -39.453125 C 6.1875 -40.546875 6.6875 -41.488281 7.46875 -42.28125 C 8.21875 -43.019531 8.554688 -43.5 8.484375 -43.71875 C 8.421875 -43.9375 7.910156 -44.046875 6.953125 -44.046875 Z M 1.3125 -44.046875 "/></g></g></g></g></g></svg>